<svg width="545" height="556" viewBox="0 0 545 556" fill="none" xmlns="http://www.w3.org/2000/svg">
<rect x="1.76172" y="0.0322113" width="542.258" height="555.968" fill=""/>
<ellipse cx="373.156" cy="513.714" rx="121.5" ry="14" fill="#F0F3F8"/>
<ellipse cx="301.387" cy="485.626" rx="77.8711" ry="14.3325" fill="#F0F3F8"/>
<path d="M90.8627 427.57C103.111 455.787 128.555 477.931 158.186 486.165C187.818 494.4 221.043 488.559 246.093 470.716C262.982 458.681 276.171 441.659 294.281 431.557C328.072 412.714 369.979 422.049 408.298 416.661C447.671 411.121 484.39 388.724 507.333 356.252C520.229 337.996 529.01 315.206 524.263 293.362C518.995 269.159 498.239 251.103 475.942 240.314C453.645 229.526 429.095 224.265 406.211 214.797C366.392 198.328 332.993 169.797 296.621 146.687C260.249 123.583 217.335 105.294 174.969 113.155C136.343 120.323 104.258 148.6 83.3615 181.865C37.5078 254.843 56.2507 347.797 90.8694 427.57H90.8627Z" fill="#D5F3FC"/>
<path d="M249.052 124.69H80.526C77.9962 124.69 75.9453 126.741 75.9453 129.271V237.307C75.9453 239.837 77.9962 241.888 80.526 241.888H249.052C251.582 241.888 253.633 239.837 253.633 237.307V129.271C253.633 126.741 251.582 124.69 249.052 124.69Z" fill="#4D4D4D"/>
<path d="M248.904 128.844H80.6719V237.721H248.904V128.844Z" fill=""/>
<rect x="204.781" y="162.627" width="44.4531" height="56.6239" fill="#ECFBFF"/>
<rect x="87.9023" y="227.758" width="40.0763" height="4.00727" rx="2.00363" fill="#99DFF2"/>
<rect x="142.41" y="227.758" width="40.0763" height="4.00727" rx="2.00363" fill="#99DFF2"/>
<rect x="196.914" y="227.758" width="40.0763" height="4.00727" rx="2.00363" fill="#99DFF2"/>
<rect x="225.316" y="169.924" width="22.4297" height="4.00727" rx="2.00363" fill="#99DFF2"/>
<rect x="225.316" y="186.931" width="22.4297" height="4.00727" rx="2.00363" fill="#99DFF2"/>
<rect x="225.316" y="203.939" width="22.4297" height="4.00727" rx="2.00363" fill="#99DFF2"/>
<rect x="80.6719" y="162.627" width="124.109" height="56.6239" fill="#D4F5FE"/>
<rect x="87.9023" y="177.287" width="51.3086" height="4.00727" rx="2.00363" fill="#99DFF2"/>
<rect x="87.9023" y="186.891" width="35.0929" height="4.00727" rx="2.00363" fill="#99DFF2"/>
<rect x="80.6719" y="141.215" width="168.234" height="21.088" fill="#2198CB"/>
<rect x="150.855" y="151.259" width="10.7622" height="4.00727" rx="2.00363" fill="#99DFF2"/>
<rect x="169.613" y="151.259" width="10.7622" height="4.00727" rx="2.00363" fill="#99DFF2"/>
<rect x="188.371" y="151.259" width="10.7622" height="4.00727" rx="2.00363" fill="#99DFF2"/>
<rect x="207.129" y="151.259" width="10.7622" height="4.00727" rx="2.00363" fill="#99DFF2"/>
<rect x="225.883" y="151.259" width="10.7622" height="4.00727" rx="2.00363" fill="#99DFF2"/>
<rect x="89.8672" y="147.412" width="27.6743" height="8.01454" rx="4.00727" fill="#99DFF2"/>
<path d="M187.683 284.414L139.195 284.608L142.262 250.803L143.076 241.881H183.149L184.102 250.803L187.683 284.414Z" fill="#4D4D4D"/>
<g style="mix-blend-mode:multiply" opacity="0.5">
<path d="M184.101 250.803H142.262L143.075 241.881H183.148L184.101 250.803Z" fill="#4D4D4D"/>
</g>
<path d="M211.42 171.702L210.161 172.093C210.035 172.009 209.909 171.891 209.783 171.74C209.657 171.589 209.594 171.379 209.594 171.11C209.594 170.606 209.9 170.254 210.513 170.052L211.924 169.573H212.39C212.752 169.573 213.037 169.678 213.247 169.888C213.457 170.098 213.562 170.384 213.562 170.745V177.308C213.47 177.325 213.331 177.346 213.146 177.371C212.97 177.405 212.789 177.422 212.605 177.422C212.42 177.422 212.252 177.409 212.101 177.384C211.958 177.359 211.836 177.308 211.735 177.233C211.635 177.157 211.555 177.056 211.496 176.93C211.446 176.796 211.42 176.624 211.42 176.414V171.702ZM217.572 169.473C218.051 169.473 218.475 169.536 218.845 169.662C219.214 169.779 219.529 169.943 219.79 170.153C220.05 170.363 220.247 170.611 220.382 170.896C220.516 171.182 220.583 171.488 220.583 171.816C220.583 172.698 220.084 173.537 219.084 174.335L217.434 175.658H220.457C220.508 175.75 220.554 175.868 220.596 176.011C220.646 176.154 220.671 176.309 220.671 176.477C220.671 176.779 220.604 176.998 220.47 177.132C220.335 177.258 220.159 177.321 219.941 177.321H215.569C215.385 177.195 215.238 177.035 215.128 176.842C215.028 176.641 214.977 176.405 214.977 176.137C214.977 175.851 215.036 175.612 215.154 175.419C215.271 175.217 215.401 175.058 215.544 174.94L217.283 173.453C217.501 173.269 217.682 173.105 217.824 172.962C217.967 172.811 218.081 172.677 218.164 172.559C218.257 172.441 218.32 172.332 218.353 172.231C218.395 172.131 218.416 172.034 218.416 171.942C218.416 171.707 218.311 171.522 218.102 171.387C217.9 171.253 217.648 171.186 217.346 171.186C217.01 171.186 216.707 171.24 216.439 171.35C216.178 171.45 215.96 171.56 215.784 171.677C215.641 171.576 215.523 171.45 215.431 171.299C215.338 171.148 215.292 170.972 215.292 170.77C215.292 170.333 215.498 170.01 215.91 169.8C216.321 169.582 216.875 169.473 217.572 169.473Z" fill="#99DFF2"/>
<path d="M211.248 188.702L209.988 189.093C209.862 189.009 209.736 188.891 209.61 188.74C209.485 188.589 209.422 188.379 209.422 188.11C209.422 187.606 209.728 187.254 210.341 187.052L211.752 186.573H212.218C212.579 186.573 212.865 186.678 213.075 186.888C213.285 187.098 213.39 187.384 213.39 187.745V194.308C213.297 194.325 213.159 194.346 212.974 194.371C212.798 194.405 212.617 194.422 212.432 194.422C212.248 194.422 212.08 194.409 211.928 194.384C211.786 194.359 211.664 194.308 211.563 194.233C211.462 194.157 211.383 194.056 211.324 193.93C211.273 193.796 211.248 193.624 211.248 193.414V188.702ZM214.871 188.728C214.871 188.392 214.942 188.085 215.085 187.808C215.228 187.531 215.425 187.291 215.677 187.09C215.929 186.888 216.232 186.733 216.584 186.624C216.937 186.515 217.323 186.46 217.743 186.46C218.163 186.46 218.55 186.51 218.902 186.611C219.255 186.712 219.557 186.855 219.809 187.039C220.061 187.224 220.259 187.451 220.401 187.72C220.544 187.989 220.616 188.291 220.616 188.627C220.616 188.996 220.54 189.32 220.389 189.597C220.238 189.874 220.028 190.105 219.759 190.29C220.078 190.508 220.338 190.768 220.54 191.071C220.742 191.365 220.842 191.764 220.842 192.268C220.842 192.603 220.771 192.91 220.628 193.187C220.485 193.464 220.28 193.704 220.011 193.905C219.742 194.107 219.419 194.262 219.041 194.371C218.663 194.48 218.239 194.535 217.768 194.535C217.298 194.535 216.874 194.48 216.496 194.371C216.118 194.262 215.795 194.107 215.526 193.905C215.266 193.704 215.06 193.464 214.909 193.187C214.766 192.91 214.695 192.603 214.695 192.268C214.695 191.814 214.791 191.436 214.984 191.134C215.186 190.831 215.421 190.596 215.69 190.428C215.463 190.243 215.27 190.025 215.11 189.773C214.951 189.513 214.871 189.164 214.871 188.728ZM216.849 192.079C216.849 192.339 216.933 192.545 217.101 192.696C217.277 192.847 217.5 192.923 217.768 192.923C218.037 192.923 218.256 192.847 218.424 192.696C218.6 192.536 218.688 192.33 218.688 192.079C218.688 191.835 218.613 191.633 218.461 191.474C218.319 191.306 218.121 191.176 217.869 191.083C217.5 191.167 217.235 191.297 217.076 191.474C216.924 191.642 216.849 191.843 216.849 192.079ZM218.512 188.803C218.512 188.576 218.445 188.396 218.31 188.261C218.176 188.127 217.987 188.06 217.743 188.06C217.5 188.06 217.311 188.127 217.176 188.261C217.042 188.396 216.975 188.572 216.975 188.791C216.975 189.009 217.042 189.185 217.176 189.32C217.319 189.454 217.483 189.563 217.668 189.647C217.962 189.58 218.176 189.471 218.31 189.32C218.445 189.168 218.512 188.996 218.512 188.803Z" fill="#99DFF2"/>
<path d="M211.749 203.891C212.228 203.891 212.652 203.954 213.021 204.08C213.391 204.197 213.706 204.361 213.966 204.571C214.227 204.781 214.424 205.029 214.558 205.314C214.693 205.6 214.76 205.906 214.76 206.234C214.76 207.116 214.26 207.956 213.261 208.753L211.61 210.076H214.634C214.684 210.169 214.73 210.286 214.772 210.429C214.823 210.572 214.848 210.727 214.848 210.895C214.848 211.197 214.781 211.416 214.646 211.55C214.512 211.676 214.336 211.739 214.117 211.739H209.746C209.561 211.613 209.414 211.454 209.305 211.26C209.204 211.059 209.154 210.824 209.154 210.555C209.154 210.269 209.213 210.03 209.33 209.837C209.448 209.635 209.578 209.476 209.721 209.358L211.459 207.872C211.678 207.687 211.858 207.523 212.001 207.38C212.144 207.229 212.257 207.095 212.341 206.977C212.433 206.86 212.496 206.75 212.53 206.65C212.572 206.549 212.593 206.452 212.593 206.36C212.593 206.125 212.488 205.94 212.278 205.806C212.077 205.671 211.825 205.604 211.522 205.604C211.186 205.604 210.884 205.659 210.615 205.768C210.355 205.869 210.136 205.978 209.96 206.095C209.817 205.995 209.7 205.869 209.607 205.717C209.515 205.566 209.469 205.39 209.469 205.188C209.469 204.752 209.675 204.428 210.086 204.218C210.498 204 211.052 203.891 211.749 203.891ZM218.836 204.168C218.996 204.118 219.176 204.076 219.378 204.042C219.588 204.008 219.777 203.992 219.945 203.992C220.138 203.992 220.323 204.013 220.499 204.055C220.684 204.088 220.848 204.151 220.99 204.244C221.133 204.328 221.246 204.445 221.33 204.596C221.414 204.747 221.456 204.936 221.456 205.163V208.514H222.578C222.628 208.607 222.678 208.728 222.729 208.879C222.779 209.031 222.804 209.19 222.804 209.358C222.804 209.677 222.733 209.904 222.59 210.038C222.447 210.173 222.267 210.24 222.049 210.24H221.456V211.727C221.364 211.743 221.225 211.764 221.041 211.79C220.856 211.823 220.68 211.84 220.512 211.84C220.327 211.84 220.163 211.832 220.02 211.815C219.878 211.798 219.756 211.76 219.655 211.701C219.563 211.634 219.491 211.542 219.441 211.424C219.39 211.307 219.365 211.147 219.365 210.945V210.24H216.203C216.01 210.139 215.842 209.992 215.699 209.799C215.565 209.598 215.498 209.354 215.498 209.068C215.498 208.909 215.519 208.732 215.561 208.539C215.603 208.346 215.674 208.178 215.775 208.035L218.836 204.168ZM219.479 206.146H219.441L217.765 208.514H219.479V206.146Z" fill="#99DFF2"/>
<path d="M373.459 284.608H24.1723C21.937 284.608 20.125 286.418 20.125 288.652C20.125 290.885 21.937 292.696 24.1723 292.696H373.459C375.694 292.696 377.506 290.885 377.506 288.652C377.506 286.418 375.694 284.608 373.459 284.608Z" fill="#A4F2FF"/>
<path d="M281.414 274.573H303.184C305.951 274.573 308.198 276.82 308.198 279.587C308.198 282.354 305.951 284.601 303.184 284.601H281.414V274.566V274.573Z" fill="#4D4D4D"/>
<path d="M325.061 481.918L294.863 289.322H298.824L329.022 481.918H325.061Z" fill="#A4F2FF"/>
<path d="M72.5778 481.918L102.776 289.322H98.8152L68.6172 481.918H72.5778Z" fill="#A4F2FF"/>
<path d="M246.199 390.171C243.838 394.705 243.992 400.459 246.605 404.86C247.672 406.653 249.172 408.653 248.426 410.6C247.912 411.934 246.452 412.694 245.038 412.861C243.618 413.027 242.198 412.721 240.778 412.554C232.523 411.574 224.435 415.261 216.134 415.721C214.094 415.835 211.58 415.454 210.833 413.548C210.146 411.801 211.447 409.887 212.933 408.747C217.014 405.613 222.748 405.293 226.809 402.126C231.523 398.445 232.803 391.964 233.757 386.057C238.091 386.81 242.358 387.957 246.199 390.171Z" fill="#FF6B36"/>
<path d="M218.52 405.446C217.287 410.407 218.787 415.968 222.354 419.628C223.808 421.122 225.742 422.716 225.468 424.783C225.282 426.196 224.041 427.276 222.701 427.77C221.361 428.263 219.907 428.296 218.487 428.463C210.233 429.443 203.231 434.917 195.27 437.311C193.31 437.898 190.783 438.118 189.609 436.438C188.529 434.897 189.349 432.737 190.53 431.277C193.77 427.276 199.264 425.623 202.471 421.595C206.199 416.915 205.925 410.314 205.472 404.346C209.859 404.066 214.28 404.179 218.527 405.44L218.52 405.446Z" fill="#FF794A"/>
<path d="M228.399 396.945L224.398 333.602L254.543 332.935L247.495 396.612L228.399 396.945Z" fill="#3544A6"/>
<path d="M221.875 251.629C221.875 251.629 210.733 262.584 204.599 268.065C198.431 258.29 194.19 253.476 188.696 242.821C190.616 238.907 191.23 234.36 190.41 230.073C190.11 228.506 189.53 226.846 188.189 225.972C186.849 225.099 184.616 225.585 184.289 227.146C183.889 225.839 182.449 224.939 181.095 225.145C179.741 225.352 178.648 226.646 178.655 228.012C177.454 227.039 175.494 227.819 174.767 229.186C174.041 230.553 174.214 232.206 174.534 233.72C175.521 238.367 177.741 242.755 180.615 246.395C183.362 256.99 190.79 275.7 195.644 287.468C197.891 292.922 204.585 294.929 209.466 291.602C224.095 281.627 235.303 270.719 235.303 270.719L221.875 251.616V251.629Z" fill="#C77C69"/>
<path d="M234.896 184.319C227.755 202.208 229.462 211.263 243.777 216.424C243.364 221.138 242.617 229.846 242.197 234.56C247.838 234.493 261.793 235.033 261.793 235.033C261.793 235.033 261.64 211.457 260.673 199.995C260.246 194.934 259.299 189.433 255.492 186.073C251.705 182.739 239.323 176.618 239.323 176.618C239.323 176.618 236.456 180.398 234.889 184.319H234.896Z" fill="#C77C69"/>
<path d="M274.305 308.405C242.353 311.285 199.627 331.155 197.253 334.129C194.399 337.709 194.726 342.79 195.186 347.344C197.34 368.381 199.494 389.417 201.547 410.807C209.362 411.641 217.416 410.16 224.424 406.586C223.771 389.364 223.111 372.141 222.737 355.205C236.099 355.325 249.468 354.959 262.803 354.112C267.171 353.832 271.791 353.418 275.332 350.838C280.193 347.304 281.666 340.65 281.379 334.649C281.093 328.648 274.765 314.072 274.312 308.405H274.305Z" fill="#3C4DB9"/>
<path d="M228.285 328.114C228.285 328.114 230.265 305.831 234.679 273.066C238.06 271.839 239.367 273.926 242.127 276.2C259.437 290.469 281.2 292.456 283.734 314.746C281.873 314.172 245.008 330.141 243.261 331.002C241.514 331.862 239.707 332.862 237.76 332.748C235.813 332.635 228.285 328.114 228.285 328.114Z" fill="#3C4DB9"/>
<path d="M278.972 304.071C278.972 304.071 250.034 304.464 239.773 304.317C236.026 282.434 234.865 275.193 234.865 275.193L228.645 280.38L210.648 260.431C210.648 260.431 226.524 237.04 229.098 233.793C231.185 231.166 233.879 228.913 236.992 227.759C237.733 227.479 238.493 227.266 239.273 227.126C240.326 226.939 242.48 226.866 242.48 226.866C242.48 226.866 247.727 227.266 252.775 226.426C256.856 225.745 261.77 223.038 261.77 223.038C261.77 223.038 265.584 224.519 266.824 225.525C267.29 225.912 267.737 226.319 268.151 226.746C269.858 228.506 271.198 230.506 272.265 232.666C273.925 236.034 274.905 239.788 275.538 243.628C275.958 246.189 276.225 248.789 276.439 251.329C278.305 273.719 278.972 304.071 278.972 304.071Z" fill="white"/>
<path d="M281.232 324.607L276.072 325.961C275.385 323.34 274.645 320.7 273.858 318.04C272.124 312.139 270.164 306.144 268.03 300.103C266.663 296.236 265.223 292.349 263.723 288.462C255.768 267.765 246.187 246.909 236.992 227.759C237.732 227.479 238.492 227.266 239.273 227.126C240.326 226.939 241.393 226.879 242.48 226.866C250.121 242.821 258.002 259.924 264.983 277.14C266.417 280.674 267.817 284.208 269.157 287.742C272.851 297.41 276.185 307.051 278.959 316.473C279.765 319.206 280.526 321.913 281.232 324.607Z" fill="#3C4DB9"/>
<path d="M251.246 321.66H244.805C244.805 321.66 255.666 266.912 261.761 223.038L262.687 223.165C264.168 223.678 265.575 224.519 266.815 225.525C262.561 256.803 251.106 319.04 251.246 321.66Z" fill="#3C4DB9"/>
<path d="M237.111 196.461C242.919 189.487 250.7 200.568 240.812 204.702C241.312 209.423 245.006 213.497 249.5 215.01C253.994 216.524 259.108 215.664 263.202 213.257C267.296 210.85 270.429 207.029 272.576 202.789C275.804 196.414 276.877 188.786 274.61 182.012C272.343 175.238 266.462 169.563 259.414 168.41C253.467 167.43 247.319 169.65 242.525 173.304C237.731 176.958 236.558 182.172 236.244 186.146C235.924 190.253 236.011 192.454 237.118 196.461H237.111Z" fill="#331010"/>
<path d="M262.918 169.93C260.111 171.477 258.011 174.137 256.824 177.111C255.637 180.085 255.324 183.359 255.571 186.553C255.837 189.993 256.777 193.454 258.791 196.261C260.805 199.061 263.999 201.135 267.446 201.282C270.893 201.435 274.474 199.415 275.674 196.174C270.38 188.12 266.019 179.445 262.918 169.923V169.93Z" fill="#290909"/>
<path d="M258.712 181.239C257.599 174.371 262.52 167.23 269.201 165.289C275.882 163.349 283.536 166.416 287.517 172.124C291.691 178.105 291.744 186.753 287.417 192.627C283.089 198.501 274.601 200.988 267.894 198.141C261.186 195.294 259.706 187.366 258.719 181.245L258.712 181.239Z" fill="#331010"/>
<path d="M208.148 353.038H281.846V359.966C281.846 363.787 278.746 366.894 274.919 366.894H215.076C211.256 366.894 208.148 363.793 208.148 359.966V353.038Z" fill="#A4F2FF"/>
<path d="M363.949 368.427V229.226H294.978C285.843 229.226 278.149 236.034 277.035 245.102L262.066 366.794L363.955 368.434L363.949 368.427Z" fill="#76D9E8"/>
<path d="M379.213 368.427V229.226H294.247L277.324 366.794L379.213 368.427Z" fill="#A4F2FF"/>
<path d="M305.236 366.894H286.473V425.989H305.236V366.894Z" fill="#A4F2FF"/>
<path d="M299.77 425.989H291.582V467.996H299.77V425.989Z" fill="#76D9E8"/>
<path d="M360.638 464.295H238.906V471.39H360.638V464.295Z" fill="#A4F2FF"/>
<path d="M296.562 464.649L239.852 485.695L242.32 492.346L299.03 471.301L296.562 464.649Z" fill="#A4F2FF"/>
<path d="M351.445 485.688L294.734 464.643L292.266 471.294L348.976 492.339L351.445 485.688Z" fill="#A4F2FF"/>
<path d="M246.546 479.044C250.619 479.044 253.921 475.743 253.921 471.67C253.921 467.597 250.619 464.295 246.546 464.295C242.474 464.295 239.172 467.597 239.172 471.67C239.172 475.743 242.474 479.044 246.546 479.044Z" fill="#A4F2FF"/>
<path d="M249.199 498.361C253.271 498.361 256.573 495.059 256.573 490.986C256.573 486.913 253.271 483.612 249.199 483.612C245.126 483.612 241.824 486.913 241.824 490.986C241.824 495.059 245.126 498.361 249.199 498.361Z" fill="#A4F2FF"/>
<path d="M352.347 480.138C356.42 480.138 359.722 476.836 359.722 472.763C359.722 468.69 356.42 465.389 352.347 465.389C348.274 465.389 344.973 468.69 344.973 472.763C344.973 476.836 348.274 480.138 352.347 480.138Z" fill="#A4F2FF"/>
<path d="M342.441 499.714C346.514 499.714 349.815 496.412 349.815 492.34C349.815 488.267 346.514 484.965 342.441 484.965C338.368 484.965 335.066 488.267 335.066 492.34C335.066 496.412 338.368 499.714 342.441 499.714Z" fill="#A4F2FF"/>
<path d="M340.345 507.209C344.679 509.569 356.295 511.423 364.049 512.789C366.189 513.163 369.31 512.996 371.877 512.169C371.877 512.169 371.884 512.169 371.897 512.169C374.397 511.369 376.351 509.956 376.371 507.835L384.152 403.059C384.152 403.059 387.866 379.716 391.947 355.252C392.253 353.398 392.567 351.531 392.887 349.664C393.627 345.23 394.374 340.81 395.1 336.549C396.141 330.501 397.141 324.761 398.061 319.693C398.348 318.113 398.628 316.606 398.888 315.172C384.346 315.219 369.817 314.506 355.348 313.065C354.548 319.073 354.068 327.354 353.854 336.582C353.601 346.191 353.627 356.812 353.807 366.9C354.014 379.662 354.488 391.584 354.988 399.532C357.521 440.092 360.275 454.981 362.802 495.54C361.395 496.794 352.734 499.494 346.733 501.261C343.406 502.241 340.892 502.935 340.892 502.935C340.892 502.935 338.905 504.628 340.332 507.215L340.345 507.209Z" fill="#FFA091"/>
<path d="M346.486 499.947C342.979 500.874 339.138 499.687 335.784 501.714C334.471 502.508 333.557 503.881 333.591 505.408C333.637 507.875 336.645 509.436 338.138 509.856C348.893 512.869 382.305 514.936 382.305 514.936C382.432 512.849 380.885 511.036 378.804 510.822L347.153 508.049C347.326 505.395 347.106 502.721 346.486 499.947Z" fill="#007982"/>
<path d="M393.086 320.22C393.379 324.654 394.099 330.275 395.106 336.542C395.846 341.216 396.747 346.251 397.74 351.425C397.753 351.471 397.753 351.498 397.76 351.545C397.86 352.058 397.953 352.571 398.067 353.085C398.84 357.106 399.674 361.199 400.534 365.28C403.788 380.676 407.388 395.711 409.902 405.033C420.45 444.286 426.091 458.334 436.639 497.587C435.506 499.094 427.558 503.461 422.017 506.375C418.95 508.002 416.623 509.169 416.623 509.169C416.623 509.169 415.016 511.222 416.93 513.49C421.637 514.943 433.405 514.436 441.267 514.243C443.447 514.19 446.494 513.389 448.841 512.069H448.861C451.122 510.769 452.762 509.015 452.368 506.935L439.18 402.693C439.18 402.693 437.993 374.315 437.086 347.124C437.013 344.764 436.933 342.417 436.866 340.103C436.553 330.301 436.299 320.987 436.179 313.639C423.577 316.213 410.849 318.246 398.067 319.686C396.406 319.873 394.746 320.06 393.086 320.22Z" fill="#FFA091"/>
<path d="M421.51 505.142C418.256 506.742 414.255 506.348 411.375 509.002C410.248 510.042 409.628 511.569 409.961 513.063C410.121 513.763 410.875 514.496 411.868 515.183C414.995 517.33 418.862 518.11 422.61 517.543L459.669 511.896C459.222 510.089 457.475 508.929 455.635 509.209C448.787 510.269 432.751 512.636 423.777 512.956C423.423 510.322 422.676 507.742 421.51 505.148V505.142Z" fill="#007982"/>
<path d="M385.269 57.2262C383.882 63.7005 382.488 70.2215 382.308 76.8426C382.128 83.4636 383.222 90.2579 386.522 95.9988C389.823 101.74 395.55 106.287 402.191 106.814C401.824 109.561 401.091 115.055 401.091 115.055C401.091 115.055 381.955 120.976 381.555 124.003C385.375 124.016 397.884 144.546 412.726 145.446C424.388 146.153 436.61 127.784 439.61 127.79C439.89 124.603 421.161 114.622 421.161 114.622C421.161 114.622 422.401 97.3524 422.348 88.6977C422.301 81.6099 421.714 74.0955 417.587 68.3412C414.373 63.8539 409.312 60.9668 404.031 59.3599C398.751 57.7596 393.196 57.3262 385.275 57.2195L385.269 57.2262Z" fill="#FFA091"/>
<path d="M440.891 124.377C447.858 129.817 451.059 139.085 452.339 147.827C457.286 181.585 445.318 217.404 421.074 241.414C427.289 211.103 433.523 180.692 435.79 149.827C436.39 141.646 436.29 133.245 440.891 124.37V124.377Z" fill="#FFA091"/>
<path d="M447.884 229.226C447.884 229.226 469.574 300.85 459.666 450.28C411.665 453.98 338.141 451.9 338.141 451.9C338.141 451.9 339.768 385.943 347.235 319.02C352.149 274.973 363.951 231.806 363.951 231.806L447.884 229.233V229.226Z" fill="#4A4A4A"/>
<path d="M327.556 234.86C327.556 234.86 317.975 231.433 313.208 229.419C307.167 229.366 301.132 229.313 295.092 229.259C294.791 229.259 294.438 229.219 294.298 228.959C294.138 228.659 294.378 228.306 294.605 228.052C297.999 224.285 301.799 220.891 305.92 217.984C307.82 216.644 310.281 216.384 312.448 217.231C318.122 219.464 324.963 222.165 324.963 222.165L327.556 234.86Z" fill="#FFA091"/>
<path d="M396.811 131.844C396.985 137.912 396.478 143.98 395.878 150.014C395.585 153.034 395.178 156.041 394.811 159.049C394.384 162.049 393.958 165.049 393.484 168.043C392.517 174.031 391.484 179.998 390.304 185.946C389.73 188.92 389.13 191.894 388.49 194.854C387.863 197.821 387.223 200.775 386.523 203.729L386.463 203.995L386.276 204.149L381.802 207.843L377.302 211.51C374.288 213.937 371.274 216.357 368.207 218.724C370.994 216.037 373.835 213.41 376.675 210.783L380.962 206.869L385.27 202.989L385.023 203.409L388.383 185.579C389.477 179.632 390.577 173.684 391.604 167.73C392.664 161.776 393.658 155.815 394.571 149.84C395.471 143.866 396.345 137.885 396.805 131.838L396.811 131.844Z" fill="#00A897"/>
<path d="M393.84 92.2249C395.876 92.2249 397.527 90.5741 397.527 88.5377C397.527 86.5013 395.876 84.8505 393.84 84.8505C391.803 84.8505 390.152 86.5013 390.152 88.5377C390.152 90.5741 391.803 92.2249 393.84 92.2249Z" fill="#FF794A"/>
<path d="M262.75 175.224C265.364 170.67 271.045 168.183 276.205 169.137C281.366 170.084 285.72 174.291 287.074 179.365C287.921 182.532 287.634 186.053 285.994 188.893C284.353 191.734 281.293 193.787 278.012 193.907" stroke="#421A1A" stroke-width="0.666769" stroke-miterlimit="10" stroke-linecap="round"/>
<path d="M284.244 187.433C282.844 189.753 280.403 191.38 277.756 191.94C275.109 192.5 272.275 192.027 269.875 190.773C267.041 189.293 264.761 186.679 263.921 183.592C263.074 180.505 263.754 176.991 265.868 174.591C267.981 172.191 271.522 171.077 274.576 172.044" stroke="#421A1A" stroke-width="0.666769" stroke-miterlimit="10" stroke-linecap="round"/>
<path d="M271.715 174.071C273.262 172.937 275.475 173.417 277.149 174.358C279.163 175.484 280.863 177.238 281.67 179.398C282.477 181.559 282.323 184.112 281.03 186.019C279.736 187.926 277.269 189.04 275.029 188.52" stroke="#421A1A" stroke-width="0.666769" stroke-miterlimit="10" stroke-linecap="round"/>
<path d="M274.338 176.611C273.191 176.271 271.891 176.651 270.998 177.451C270.104 178.251 269.584 179.412 269.411 180.598C269.191 182.092 269.511 183.679 270.384 184.906C271.258 186.133 272.705 186.966 274.218 186.993C275.732 187.019 277.245 186.179 277.932 184.832" stroke="#421A1A" stroke-width="0.666769" stroke-miterlimit="10" stroke-linecap="round"/>
<path d="M257.966 170.67C254.059 170.337 250.058 171.25 246.691 173.251C243.317 175.251 240.597 178.325 239.023 181.912" stroke="#421A1A" stroke-width="0.666769" stroke-miterlimit="10" stroke-linecap="round"/>
<path d="M238.961 187.166C242.768 180.652 249.636 176.018 257.104 174.924" stroke="#421A1A" stroke-width="0.666769" stroke-miterlimit="10" stroke-linecap="round"/>
<path d="M245.984 208.223C249.225 210.516 253.626 210.69 257.393 209.443C261.16 208.196 264.381 205.696 267.254 202.955" stroke="#421A1A" stroke-width="0.666769" stroke-miterlimit="10" stroke-linecap="round"/>
<path d="M246.707 204.042C251.194 204.475 255.842 202.495 258.642 198.961" stroke="#421A1A" stroke-width="0.666769" stroke-miterlimit="10" stroke-linecap="round"/>
<path d="M241.844 190.307C245.171 186.326 249.625 183.299 254.552 181.679" stroke="#421A1A" stroke-width="0.666769" stroke-miterlimit="10" stroke-linecap="round"/>
<path d="M247.746 199.255C250.82 198.088 253.547 196.014 255.481 193.354" stroke="#421A1A" stroke-width="0.666769" stroke-miterlimit="10" stroke-linecap="round"/>
<path d="M240.12 196.008C239.927 196.974 240.227 198.028 240.9 198.748C241.574 199.468 242.601 199.841 243.581 199.715" stroke="#AB553F" stroke-width="0.666769" stroke-miterlimit="10" stroke-linecap="round"/>
<path d="M238.894 201.715C238.747 200.395 239.474 199.028 240.641 198.401" stroke="#AB553F" stroke-width="0.666769" stroke-miterlimit="10" stroke-linecap="round"/>
<path d="M439.071 124.01C439.071 124.01 437.357 122.363 436.744 121.856C436.017 121.256 433.697 119.569 433.697 119.569C433.697 119.569 427.242 125.923 416.674 126.844C407.306 127.664 399.165 124.217 393.284 116.789C390.864 117.696 390.13 117.862 388.17 118.942C400.125 183.499 365.766 206.169 360.105 240.268C383.336 251.789 432.29 252.536 456.554 243.995C458.514 202.015 439.071 124.016 439.071 124.016V124.01Z" fill="#FFC150"/>
<path d="M395.806 130.464C394.739 120.929 386.698 111.488 377.19 128.257C365.562 148.76 367.509 172.877 363.028 194.114C352.113 203.709 335.99 212.637 324.969 222.165C325.522 225.352 326.882 231.42 327.562 234.86C345.112 228.686 358.574 221.858 375.783 214.784C379.257 213.357 384.911 209.43 387.065 206.356C388.845 203.815 398.76 156.795 395.806 130.457V130.464Z" fill="#FFA091"/>
<path d="M384.995 52.3588C393.477 45.1244 407.852 43.2641 418.44 46.7446C429.029 50.2252 437.51 59.4932 440.044 70.3482C442.904 82.6101 438.77 96.5789 445.218 107.387C450.065 115.515 459.827 119.722 464.748 127.804C470.408 137.105 468.328 148.967 466.414 159.935C459.987 159.802 453.559 159.662 447.132 159.529C447.272 154.808 447.412 150.08 447.558 145.36C446.591 150.267 445.625 155.175 444.664 160.082C436.003 160.102 427.342 160.122 418.68 160.142C419.954 155.141 421.228 150.134 422.501 145.133C420.014 150.167 417.527 155.201 415.04 160.235C409.419 159.195 403.658 158.942 397.971 159.502C400.118 150.894 402.245 141.679 399.278 133.318C397.797 129.144 395.07 125.29 394.87 120.863C394.663 116.429 397.051 112.301 399.718 108.754C402.385 105.207 405.465 101.84 407.039 97.6924C408.612 93.5385 405.258 91.2114 401.918 87.6842C406.572 84.4571 407.892 80.3764 407.579 77.8494C407.265 75.3223 405.352 72.982 402.851 72.4952C400.351 72.0085 397.537 73.6954 397.064 76.1958C383.588 72.7353 383.355 57.0329 385.002 52.3655L384.995 52.3588Z" fill="#363636"/>
<path d="M429.629 54.8592C438.957 60.4534 445.258 70.7883 445.971 81.6433C446.498 89.7579 444.198 98.4526 447.865 105.707C450.739 111.395 456.64 114.808 460.867 119.576C467.215 126.737 469.488 137.285 466.661 146.427" stroke="#363636" stroke-width="0.666769" stroke-miterlimit="10"/>
<path d="M385.291 53.1123C381.657 60.6068 383.624 66.7677 386.044 70.0549C388.465 73.342 392.565 75.5824 396.606 74.9823" stroke="#363636" stroke-width="0.666769" stroke-miterlimit="10"/>
<path d="M402.264 101.353L397.75 93.1117L402.264 84.5704L406.771 93.1117L402.264 101.353Z" stroke="white" stroke-width="0.666769" stroke-miterlimit="10"/>
<path d="M404.41 87.4042C406.416 91.0248 405.536 95.6455 403.509 99.2527C401.482 102.86 398.462 105.794 395.915 109.054C393.368 112.315 391.207 116.209 391.421 120.343C391.608 123.983 393.581 127.244 395.015 130.591C398.675 139.159 398.809 149.174 395.381 157.842" stroke="#363636" stroke-width="0.666769" stroke-miterlimit="10" stroke-linecap="round"/>
<path d="M189.063 242.761C190.523 237.661 191.977 232.56 193.437 227.459C193.85 226.005 194.17 224.179 193.01 223.198C191.923 222.278 190.13 222.832 189.263 223.965C188.396 225.099 188.203 226.592 188.043 228.006C188.149 224.032 187.816 220.045 187.056 216.144C186.816 214.93 186.309 213.49 185.089 213.277C184.162 213.117 183.255 213.83 182.882 214.697C182.508 215.564 182.542 216.544 182.575 217.484C182.868 215.737 180.988 214.01 179.268 214.45C177.548 214.89 176.734 217.304 177.828 218.698C177.341 217.244 175.261 216.631 174.06 217.584C172.86 218.544 173 220.705 174.307 221.505C173.38 220.825 171.967 221.445 171.427 222.452C170.887 223.465 170.98 224.685 171.14 225.819C172.3 234.193 176.161 242.175 182.008 248.276C183.662 246.002 186.109 244.315 189.049 242.761H189.063Z" fill="#C77C69"/>
<path d="M383.574 88.6644C384.661 89.0844 385.948 88.9444 386.928 88.3043C386.215 89.8512 385.501 91.4048 384.801 92.9584C384.421 91.5982 384.041 90.238 383.574 88.6644Z" fill="white"/>
<rect x="80.6719" y="128.844" width="168.234" height="12.3708" fill="#E0E0E0"/>
<rect x="122.789" y="131.852" width="89.7227" height="6.37137" rx="3.18568" fill="white"/>
<circle cx="87.759" cy="134.135" r="2.28241" fill="#3FAF4D"/>
<circle cx="95.5441" cy="134.135" r="2.28241" fill="#FFC623"/>
<circle cx="103.329" cy="134.135" r="2.28241" fill="#3FAF4D"/>
<rect x="276.48" y="56.2272" width="75.2422" height="65.3696" rx="5" transform="rotate(8.35625 276.48 56.2272)" fill="#F0F3F8"/>
<mask id="mask0_15545_13607" style="mask-type:alpha" maskUnits="userSpaceOnUse" x="271" y="51" width="81" height="54">
<path d="M276.598 55.4272C276.999 52.6951 279.539 50.8056 282.271 51.2069L346.821 60.6884C349.553 61.0897 351.442 63.6299 351.041 66.362L345.504 104.055L271.061 93.1199L276.598 55.4272Z" fill="#74D1E0"/>
<path d="M276.598 55.4272C276.999 52.6951 279.539 50.8056 282.271 51.2069L346.821 60.6884C349.553 61.0897 351.442 63.6299 351.041 66.362L345.504 104.055L271.061 93.1199L276.598 55.4272Z" stroke="#BDE9F5"/>
</mask>
<g mask="url(#mask0_15545_13607)">
<path d="M257.571 80.6371C255.888 90.8061 257.177 100.787 260.829 109.678C261.584 111.524 262.446 113.328 263.399 115.067C265.901 119.664 269.086 123.875 272.801 127.552C275.157 129.883 277.746 132.013 280.52 133.874C286.696 138.039 293.854 140.985 301.685 142.282C311.055 143.833 320.264 142.856 328.61 139.835C330.972 138.985 333.283 137.966 335.502 136.773C339.518 134.636 343.255 132.012 346.605 128.944C347.643 127.995 348.671 126.984 349.644 125.944C356.625 118.474 361.543 108.96 363.336 98.1291C368.171 68.9273 348.424 41.3196 319.203 36.4813C289.982 31.6429 262.413 51.3964 257.575 80.6176" fill="#94E7FC"/>
<path d="M325.458 65.0212C323.125 65.1512 320.972 66.6019 319.718 68.5769C318.464 70.5519 318.061 72.9846 318.286 75.3102C318.46 74.2594 319.192 73.3831 320.01 72.6971C320.827 72.0111 321.75 71.4714 322.567 70.7854C324.273 69.3429 325.415 67.2671 325.469 65.0231" fill="#363636"/>
<path d="M334.113 80.8642L323.891 79.1716L320.396 100.278L330.618 101.971L334.113 80.8642Z" fill="#FFAFA3"/>
<g style="mix-blend-mode:multiply" opacity="0.61">
<path d="M322.697 86.2377L321.896 91.0804C327.153 91.505 331.104 87.7704 333.235 86.0229L333.402 85.0178C329.925 85.1109 326.044 87.1439 322.697 86.2377Z" fill="#FFAFA3"/>
</g>
<path d="M334.889 80.1251C335.737 79.6788 336.864 79.9593 337.495 80.6857C338.126 81.412 338.266 82.4796 337.962 83.3916C337.659 84.3036 336.961 85.0446 336.12 85.5156C335.681 85.7597 335.192 85.9487 334.699 85.9492C334.195 85.9478 333.675 85.7561 333.299 85.2598C331.617 86.9174 329.614 88.3108 327.329 88.9299C325.044 89.549 322.468 89.2986 320.547 87.936C318.394 86.4062 317.331 83.6838 317.252 81.0421C317.185 78.4024 317.987 75.8246 318.946 73.3665C319.659 71.5367 320.601 69.6039 322.37 68.7703C323.833 68.0855 325.535 68.2969 327.138 68.5388C328.487 68.7505 329.847 68.9756 331.128 69.4576C332.409 69.9397 333.607 70.713 334.396 71.8294C335.214 72.9857 335.537 74.4356 335.537 75.8554C335.537 77.2752 335.235 78.6687 334.889 80.1251" fill="#FFAFA3"/>
<path d="M299.599 96.7868C300.041 97.8693 300.547 98.9269 301.106 99.9465C302.572 102.642 304.44 105.11 306.618 107.266C307.999 108.633 309.517 109.882 311.144 110.973C314.764 113.414 318.961 115.142 323.552 115.902C329.046 116.812 334.445 116.239 339.338 114.468C340.723 113.969 342.078 113.372 343.379 112.672C345.734 111.419 347.924 109.881 349.889 108.082C350.497 107.526 351.1 106.933 351.67 106.324C349.817 103.06 347.259 100.008 343.727 97.8857C341.74 96.7002 338.84 95.3634 336.54 94.3723C336.441 94.3324 336.353 94.2945 336.254 94.2546C334.316 93.4173 332.85 92.846 332.85 92.846L331.953 93.8005L327.456 98.5596L327.399 98.6205L325.65 100.467L324.655 98.2599L321.759 91.8662L321.364 90.9912L312.122 91.7375C306.927 92.3559 302.79 94.3815 299.597 96.7982" fill="#00D0BB"/>
<path d="M324.776 98.2105L321.734 99.7135L317.626 91.2884L321.383 90.9951L324.776 98.2105Z" fill="#FFF8E0"/>
<path d="M327.424 98.6262L330.113 101.101L336.55 94.399L332.742 92.7358L327.424 98.6262Z" fill="#FFF8E0"/>
<path d="M335.603 80.1488C336.471 79.87 337.478 80.3771 337.907 81.1874C338.336 81.9977 338.225 83.0237 337.765 83.8159C337.306 84.6082 336.541 85.1856 335.714 85.5767C334.85 85.9735 333.784 86.1726 332.992 85.6424C332.348 85.2072 332.064 84.3739 332.156 83.603C332.249 82.8321 332.691 82.1427 333.239 81.5996C333.787 81.0566 334.403 80.525 335.605 80.1374" fill="#FFAFA3"/>
<path d="M328.676 79.0021C328.771 78.5718 328.636 78.1856 328.375 78.1307C328.114 78.0758 327.819 78.3673 327.725 78.7975C327.63 79.2278 327.765 79.614 328.026 79.6689C328.287 79.7238 328.582 79.4323 328.676 79.0021Z" fill="#363636"/>
<path d="M321.158 77.2974C321.253 76.8671 321.129 76.4828 320.879 76.4298C320.63 76.3768 320.347 76.6702 320.252 77.1004C320.157 77.5306 320.281 77.915 320.531 77.968C320.78 78.021 321.064 77.7276 321.158 77.2974Z" fill="#363636"/>
<path d="M324.054 77.707C323.288 79.141 322.523 80.5749 321.757 82.0089" stroke="#363636" stroke-width="0.289424" stroke-miterlimit="10" stroke-linecap="round"/>
<path d="M323.38 82.1843L322.653 82.2517" stroke="#363636" stroke-width="0.289424" stroke-miterlimit="10" stroke-linecap="round"/>
<path d="M322.512 74.0495C321.595 73.4986 320.329 73.6293 319.54 74.3553" stroke="#363636" stroke-width="0.289424" stroke-miterlimit="10" stroke-linecap="round"/>
<path d="M328.207 75.7904C329.254 75.9873 330.151 76.8047 330.442 77.815" stroke="#363636" stroke-width="0.289424" stroke-miterlimit="10" stroke-linecap="round"/>
<g opacity="0.37">
<path d="M321.529 80.7065C321.641 80.0326 320.806 79.3312 319.653 79.1402C318.499 78.9492 317.483 79.3442 317.372 80.0181C317.26 80.692 318.095 81.3934 319.248 81.5844C320.402 81.7754 321.418 81.3803 321.529 80.7065Z" fill="#FF8D7F"/>
</g>
<g opacity="0.37">
<path d="M330.037 82.2311C330.149 81.5572 329.314 80.8558 328.161 80.6648C327.007 80.4738 325.991 80.8688 325.88 81.5427C325.768 82.2166 326.602 82.918 327.756 83.109C328.91 83.3 329.926 82.9049 330.037 82.2311Z" fill="#FF8D7F"/>
</g>
<path d="M325.74 102.407C325.798 102.053 325.56 101.72 325.206 101.662C324.852 101.603 324.519 101.841 324.461 102.195C324.402 102.549 324.64 102.882 324.994 102.941C325.348 102.999 325.681 102.761 325.74 102.407Z" fill="#FFF8E0"/>
<path d="M322.508 67.501C324.624 71.3015 328.983 73.7482 333.332 73.5647C333.307 74.8513 333.668 76.1432 334.343 77.2407C333.593 78.7945 333.332 80.5819 333.577 82.2889C333.757 81.4151 334.299 80.6247 335.029 80.1119C335.811 79.7837 336.765 79.9064 337.428 80.4386C339.067 77.5535 339.781 74.0222 338.83 70.8372C337.878 67.6522 335.087 64.9487 331.775 64.6116C331.938 63.9814 332.524 63.4917 333.167 63.4339C332.303 63.1969 331.306 63.689 330.959 64.5116C331.462 63.8088 331.292 62.7127 330.602 62.1995C330.772 62.8731 330.651 63.6041 330.294 64.2021C328.83 63.5489 327.081 63.5527 325.612 64.2013C324.144 64.85 322.969 66.134 322.504 67.5239" fill="#363636"/>
<path d="M323.882 83.7687C323.376 84.1309 322.666 84.1659 322.129 83.8657C322.072 84.2084 322.2 84.5699 322.469 84.7903C322.766 85.0508 323.24 85.0941 323.578 84.8919C323.919 84.6784 324.076 84.2234 323.882 83.7687" fill="#F0F3F8"/>
</g>
<line x1="277.522" y1="106.056" x2="333.114" y2="114.218" stroke="#D1D7E1" stroke-width="3" stroke-linecap="round"/>
<line x1="276.569" y1="112.548" x2="306.421" y2="116.933" stroke="#D1D7E1" stroke-width="3" stroke-linecap="round"/>
<path d="M318.208 77.9748L304.451 82.7213L306.397 69.4724L318.208 77.9748Z" fill="#F0F3F8"/>
<circle cx="279.242" cy="99.0587" r="1.68945" transform="rotate(8.35625 279.242 99.0587)" fill="#FFDB5A"/>
<line x1="283.998" y1="99.8067" x2="298.487" y2="101.935" stroke="#D1D7E1" stroke-width="2" stroke-linecap="round"/>
<path d="M186.555 59.2483L123.777 81.5341C121.757 82.2649 119.525 81.1904 118.825 79.1703L107.287 46.6638C106.556 44.6436 107.63 42.4124 109.65 41.7122L172.429 19.4264C174.449 18.6957 176.68 19.7701 177.381 21.7903L188.919 54.2661C189.65 56.3169 188.576 58.5176 186.555 59.2483Z" fill="#86B1F2"/>
<path d="M144.991 50.828C147.274 57.2864 143.897 64.4082 137.439 66.6915C130.98 68.9749 123.859 65.5979 121.575 59.1394C119.292 52.681 122.669 45.5592 129.127 43.2759C135.586 40.9925 142.677 44.3695 144.991 50.828Z" fill="white"/>
<path d="M135.063 49.0661C135.732 50.9639 134.75 53.0729 132.822 53.7426C130.924 54.4124 128.815 53.43 128.145 51.5016C127.475 49.6039 128.458 47.4948 130.386 46.8251C132.284 46.1859 134.393 47.1684 135.063 49.0661Z" fill="#86B1F2"/>
<path d="M141.043 59.3234L129.993 63.2509L129.567 62.0265C128.775 59.7615 129.942 57.2857 132.207 56.4942L135.053 55.4895C137.318 54.698 139.794 55.8646 140.586 58.1296L141.043 59.3234Z" fill="#86B1F2"/>
<path d="M146.545 44.0389C145.872 44.0378 145.291 43.6085 145.047 42.9963C144.743 42.1699 145.173 41.2529 145.999 40.979L173.455 31.2366C173.639 31.1757 173.792 31.1454 173.975 31.1457C174.648 31.1468 175.229 31.5761 175.473 32.1883C175.777 33.0147 175.347 33.9317 174.521 34.2056L147.065 43.948C146.912 44.009 146.728 44.0392 146.545 44.0389Z" fill="white"/>
<path d="M153.927 50.9017C153.254 50.9006 152.674 50.4713 152.43 49.8591C152.126 49.0327 152.555 48.1157 153.382 47.8418L174.808 40.2305C174.991 40.1696 175.144 40.1393 175.328 40.1396C176.001 40.1407 176.581 40.57 176.825 41.1822C176.977 41.5801 176.946 42.0084 176.762 42.4057C176.578 42.8031 176.271 43.0779 175.873 43.2301L154.447 50.8414C154.294 50.8718 154.111 50.902 153.927 50.9017Z" fill="white"/>
<path d="M21.9384 75.9785C20.2099 75.3195 18.2744 76.1866 17.6155 77.9152L1.89559 119.151C1.23664 120.88 2.10371 122.815 3.83226 123.474L56.2146 143.443C57.9432 144.102 59.8786 143.235 60.5376 141.506L76.2575 100.271C76.9164 98.542 76.0493 96.6065 74.3208 95.9476L21.9384 75.9785ZM28.329 87.5178C27.0327 87.0236 26.3846 85.577 26.8788 84.2807C27.373 82.9843 28.8196 82.3363 30.1159 82.8305C31.4123 83.3247 32.0603 84.7712 31.5661 86.0676C31.0719 87.3639 29.6254 88.012 28.329 87.5178ZM62.0911 100.388C60.7947 99.8943 60.1467 98.4477 60.6409 97.1514C61.1351 95.855 62.5816 95.207 63.878 95.7012C65.1743 96.1954 65.8223 97.6419 65.3281 98.9382C64.834 100.235 63.3875 100.883 62.0911 100.388Z" fill="#FFC623"/>
<path d="M25.0766 108.232L16.8398 105.092L14.2523 111.88L22.489 115.019L25.0766 108.232Z" fill="white"/>
<path d="M22.868 91.3167L22.2227 91.0707L9.10596 125.478L9.75131 125.724L22.868 91.3167Z" fill="white"/>
<path d="M31.1024 94.455L30.457 94.209L17.3403 128.616L17.9857 128.862L31.1024 94.455Z" fill="white"/>
<path d="M39.3445 97.5983L38.6992 97.3523L25.5825 131.76L26.2278 132.006L39.3445 97.5983Z" fill="white"/>
<path d="M47.5867 100.739L46.9414 100.493L33.8247 134.9L34.47 135.146L47.5867 100.739Z" fill="white"/>
<path d="M55.825 103.881L55.1797 103.635L42.063 138.042L42.7083 138.288L55.825 103.881Z" fill="white"/>
<path d="M64.0594 107.019L63.4141 106.773L50.2974 141.18L50.9427 141.426L64.0594 107.019Z" fill="white"/>
<path d="M69.8256 117.148L11.1836 94.7929L10.9376 95.4383L69.5796 117.794L69.8256 117.148Z" fill="white"/>
<path d="M72.5873 109.902L13.9453 87.5467L13.6993 88.192L72.3413 110.547L72.5873 109.902Z" fill="white"/>
<path d="M67.2397 123.936L8.59766 101.58L8.35164 102.226L66.9936 124.581L67.2397 123.936Z" fill="white"/>
<path d="M64.6498 130.716L6.00781 108.361L5.7618 109.006L64.4038 131.362L64.6498 130.716Z" fill="white"/>
<path d="M62.0639 137.504L3.42188 115.148L3.17586 115.794L61.8179 138.149L62.0639 137.504Z" fill="white"/>
<path d="M18.0682 112.569L16.2489 108.634C16.1101 108.334 16.2439 107.983 16.5375 107.842C16.8368 107.704 17.1878 107.837 17.3287 108.131L18.6582 111.004L24.7363 108.31C25.0334 108.176 25.3901 108.312 25.5232 108.61C25.6563 108.907 25.5203 109.263 25.2232 109.396L18.0761 112.565L18.0682 112.569Z" fill="#F54651"/>
</svg>
